<svg xmlns="http://www.w3.org/2000/svg" xmlns:xlink="http://www.w3.org/1999/xlink" viewBox="0 0 158.998 34.587"><defs><path id="a" d="M0 0h158.74v34.586H0z"/></defs><clipPath id="b"><use xlink:href="#a" overflow="visible"/></clipPath><path clip-path="url(#b)" fill="#FAA634" d="M2.244 30.741l20.687-4.926c.176-.043.679-.149 1.116-.123.349.019.558.035.881.169.439.179.772.544.961.745l7.527 7.959h.089L0 34.586l2.244-3.845zM35.452 34.564L20.841 19.111c-.123-.13-.469-.513-.666-.904-.157-.312-.246-.499-.293-.845-.063-.471.087-.942.164-1.206l3.13-10.498-.044-.077 16.772 29.006-4.452-.023z"/><path clip-path="url(#b)" fill="#9D9FA2" d="M22.085 3.865l-6.078 20.38c-.051.171-.208.662-.449 1.029-.192.291-.311.463-.587.677-.377.288-.859.396-1.127.459L3.189 28.951l-.045.075L19.878 0l2.207 3.865z"/><path clip-path="url(#b)" fill="#717073" d="M46.501 10.129h4.566c3.181 0 4.647 1.961 4.647 4.284 0 2.285-1.548 4.163-4.931 4.163H48.6v6.147h-2.098V10.129zM48.6 16.7h2.385c1.55 0 2.57-.921 2.57-2.367 0-1.08-.592-2.327-2.487-2.327H48.6V16.7zM76.37 22.848h6.585v1.876h-8.684V10.129h2.099zM83.764 10.13l3.933 5.037 3.952-5.037h2.529l-5.421 6.889v7.705h-2.1v-7.726l-5.423-6.868zM98.043 10.13l4.831 5.994 4.852-5.994h1.957v14.594h-2.101V13.371h-.04l-4.504 5.646h-.326l-4.508-5.646h-.037v11.353h-2.1V10.13zM148.537 24.724h-2.139l-1.958-4.3h-6.197l-1.855 4.3h-2.138l6.278-14.674h1.465l6.544 14.674zm-9.476-6.176h4.521l-2.34-5.301-2.181 5.301zM152.414 22.848h6.584v1.876h-8.682V10.129h2.098zM121.642 10.155v1.872h-6.73v4.262h6.582v1.876h-6.582v4.712h6.984v1.872h-9.091V10.155zM135.33 10.155v1.872h-4.924v12.722h-2.096V12.027h-4.923v-1.872zM64.484 10.026c4.602 0 7.506 3.433 7.506 7.501 0 3.941-2.825 7.496-7.548 7.496-4.564 0-7.451-3.535-7.451-7.496 0-4.043 2.967-7.501 7.493-7.501m0 13.078c3.138 0 5.437-2.389 5.437-5.576 0-3.208-2.299-5.578-5.437-5.578-3.122 0-5.422 2.37-5.422 5.578 0 3.187 2.3 5.576 5.422 5.576M75.413 28.147h.483v6.102h-.483zM77.048 28.156h.447l4.582 5.324v-5.324h.474v6.094h-.393l-4.627-5.352v5.352h-.483zM83.129 28.148h5.039v.401H85.89v5.7h-.484v-5.7h-2.277zM88.809 28.156h3.332v.402h-2.849v2.422h2.776v.403h-2.776v2.464h2.92v.403h-3.403zM94.668 28.156c1.866 0 2.089.974 2.089 1.582 0 .741-.473 1.269-1.134 1.465.223.134.536.51.661.705 0 0 1.393 2.144 1.526 2.341h-.553l-1.144-1.786c-.518-.804-.795-1.136-1.492-1.136h-.955v2.922h-.483v-6.093h1.485zm-1.001 2.77h1.017c1.135 0 1.564-.518 1.564-1.188 0-.786-.52-1.18-1.778-1.18h-.803v2.368zM98.301 28.156h.447l4.583 5.324v-5.324h.473v6.094h-.395l-4.626-5.352v5.352h-.482zM107.178 28.111h.277l2.813 6.139h-.491l-.965-2.109h-2.975l-.965 2.109h-.491l2.797-6.139zm.141.771l-1.32 2.856h2.625l-1.305-2.856zM110.338 28.148h5.04v.401h-2.28v5.7h-.483v-5.7h-2.277zM116.017 28.147h.483v6.102h-.483zM123.949 31.176c0 1.779-1.394 3.153-3.216 3.153-1.796 0-3.225-1.356-3.225-3.126 0-1.777 1.393-3.126 3.225-3.126 1.795 0 3.216 1.329 3.216 3.099m-.51 0c0-1.474-1.188-2.67-2.706-2.67-1.555 0-2.716 1.231-2.716 2.734 0 1.482 1.187 2.661 2.697 2.661 1.583 0 2.725-1.223 2.725-2.725M125.001 28.156h.446l4.581 5.324v-5.324h.476v6.094h-.395l-4.626-5.352v5.352h-.482zM133.878 28.111h.275l2.814 6.139h-.491l-.965-2.109h-2.975l-.965 2.109h-.491l2.798-6.139zm.142.771l-1.321 2.856h2.625l-1.304-2.856zM137.609 28.148h.483v5.699h3.011v.402h-3.494zM145.109 28.157h1.744c.952 0 1.91.393 1.91 1.625 0 1.206-.958 1.619-1.91 1.619h-1.262v2.848h-.482v-6.092zm.483.401v2.431h1.136c.82.019 1.527-.25 1.527-1.206 0-.955-.707-1.225-1.527-1.225h-1.136zM149.664 28.148h.482v5.699h3.01v.402h-3.492zM156.845 33.901c.787 0 1.476-.286 2.153-.627v.493c-.688.348-1.376.562-2.153.562-1.83 0-3.241-1.304-3.241-3.099 0-1.752 1.366-3.154 3.188-3.154.894 0 1.528.232 2.145.51v.509c-.644-.329-1.207-.588-2.073-.588-1.634 0-2.752 1.159-2.752 2.706-.001 1.545 1.154 2.688 2.733 2.688"/></svg>